<svg xmlns="http://www.w3.org/2000/svg" viewBox="0 -960 960 960">
  <path fill="#fff" transform="translate(68.5,-37.5)" d="M213-117.21q-21-21.21-21-51T213.21-219q21.21-21 51-21T315-218.79q21 21.21 21 51T314.79-117q-21.21 21-51 21T213-117.21Zm432 0q-21-21.21-21-51T645.21-219q21.21-21 51-21T747-218.79q21 21.21 21 51T746.79-117q-21.21 21-51 21T645-117.21ZM222-768h570q14 0 20.5 11t1.5 23L702.63-476.14Q694-456 676.5-444T637-432H317l-42 72h493v72H276q-43 0-63.5-36.15-20.5-36.16.5-71.85l52-90-131-306H48v-72h133l41 96Z"/>
</svg>
