<svg width="65" height="65" viewBox="0 0 65 65" fill="none" xmlns="http://www.w3.org/2000/svg">
<path d="M21.05 50.4895C20.3833 49.8158 20.05 48.9992 20.05 48.0395C20.05 47.0798 20.3868 46.2667 21.0605 45.6C21.7342 44.9333 22.5508 44.6 23.5105 44.6C24.4702 44.6 25.2833 44.9368 25.95 45.6105C26.6167 46.2842 26.95 47.1008 26.95 48.0605C26.95 49.0202 26.6132 49.8333 25.9395 50.5C25.2658 51.1667 24.4492 51.5 23.4895 51.5C22.5298 51.5 21.7167 51.1632 21.05 50.4895ZM42.2 50.4895C41.5333 49.8158 41.2 48.9992 41.2 48.0395C41.2 47.0798 41.5368 46.2667 42.2105 45.6C42.8842 44.9333 43.7008 44.6 44.6605 44.6C45.6202 44.6 46.4333 44.9368 47.1 45.6105C47.7667 46.2842 48.1 47.1008 48.1 48.0605C48.1 49.0202 47.7632 49.8333 47.0895 50.5C46.4158 51.1667 45.5992 51.5 44.6395 51.5C43.6798 51.5 42.8667 51.1632 42.2 50.4895ZM21.4 18.7H49.15C49.6167 18.7 49.9583 18.8833 50.175 19.25C50.3917 19.6167 50.4167 20 50.25 20.4L44.9315 32.843C44.6772 33.4977 44.2625 34.0208 43.6875 34.4125C43.1125 34.8042 42.4667 35 41.75 35H26.05L23.9 38.7H48.1V42.05H24.1C22.7167 42.05 21.6917 41.4767 21.025 40.33C20.3583 39.183 20.3667 38.0397 21.05 36.9L23.65 32.45L17.2 17.35H13V14H19.4L21.4 18.7Z" fill="#E3E3E3"/>
</svg>
